<?xml version="1.0" standalone="no"?>
<svg xmlns="http://www.w3.org/2000/svg" width="500" height="500"><defs><clipPath id="clip-path-dot-color"><rect x="19" y="145" width="14" height="14" transform="rotate(0,26,152)"/><rect x="19" y="173" width="14" height="14" transform="rotate(0,26,180)"/><rect x="19" y="187" width="14" height="14" transform="rotate(0,26,194)"/><rect x="19" y="201" width="14" height="14" transform="rotate(0,26,208)"/><rect x="19" y="215" width="14" height="14" transform="rotate(0,26,222)"/><rect x="19" y="229" width="14" height="14" transform="rotate(0,26,236)"/><rect x="19" y="257" width="14" height="14" transform="rotate(0,26,264)"/><rect x="19" y="271" width="14" height="14" transform="rotate(0,26,278)"/><rect x="19" y="313" width="14" height="14" transform="rotate(0,26,320)"/><rect x="19" y="327" width="14" height="14" transform="rotate(0,26,334)"/><rect x="19" y="355" width="14" height="14" transform="rotate(0,26,362)"/><rect x="33" y="187" width="14" height="14" transform="rotate(0,40,194)"/><rect x="33" y="201" width="14" height="14" transform="rotate(0,40,208)"/><rect x="33" y="229" width="14" height="14" transform="rotate(0,40,236)"/><rect x="33" y="243" width="14" height="14" transform="rotate(0,40,250)"/><rect x="33" y="355" width="14" height="14" transform="rotate(0,40,362)"/><rect x="47" y="159" width="14" height="14" transform="rotate(0,54,166)"/><rect x="47" y="173" width="14" height="14" transform="rotate(0,54,180)"/><rect x="47" y="257" width="14" height="14" transform="rotate(0,54,264)"/><rect x="47" y="285" width="14" height="14" transform="rotate(0,54,292)"/><rect x="47" y="299" width="14" height="14" transform="rotate(0,54,306)"/><rect x="47" y="313" width="14" height="14" transform="rotate(0,54,320)"/><rect x="47" y="355" width="14" height="14" transform="rotate(0,54,362)"/><rect x="61" y="131" width="14" height="14" transform="rotate(0,68,138)"/><rect x="61" y="145" width="14" height="14" transform="rotate(0,68,152)"/><rect x="61" y="159" width="14" height="14" transform="rotate(0,68,166)"/><rect x="61" y="215" width="14" height="14" transform="rotate(0,68,222)"/><rect x="61" y="229" width="14" height="14" transform="rotate(0,68,236)"/><rect x="61" y="243" width="14" height="14" transform="rotate(0,68,250)"/><rect x="75" y="187" width="14" height="14" transform="rotate(0,82,194)"/><rect x="75" y="243" width="14" height="14" transform="rotate(0,82,250)"/><rect x="75" y="257" width="14" height="14" transform="rotate(0,82,264)"/><rect x="75" y="285" width="14" height="14" transform="rotate(0,82,292)"/><rect x="75" y="341" width="14" height="14" transform="rotate(0,82,348)"/><rect x="89" y="131" width="14" height="14" transform="rotate(0,96,138)"/><rect x="89" y="145" width="14" height="14" transform="rotate(0,96,152)"/><rect x="89" y="159" width="14" height="14" transform="rotate(0,96,166)"/><rect x="89" y="173" width="14" height="14" transform="rotate(0,96,180)"/><rect x="89" y="201" width="14" height="14" transform="rotate(0,96,208)"/><rect x="89" y="257" width="14" height="14" transform="rotate(0,96,264)"/><rect x="89" y="271" width="14" height="14" transform="rotate(0,96,278)"/><rect x="89" y="285" width="14" height="14" transform="rotate(0,96,292)"/><rect x="89" y="313" width="14" height="14" transform="rotate(0,96,320)"/><rect x="89" y="327" width="14" height="14" transform="rotate(0,96,334)"/><rect x="89" y="341" width="14" height="14" transform="rotate(0,96,348)"/><rect x="103" y="131" width="14" height="14" transform="rotate(0,110,138)"/><rect x="103" y="159" width="14" height="14" transform="rotate(0,110,166)"/><rect x="103" y="187" width="14" height="14" transform="rotate(0,110,194)"/><rect x="103" y="215" width="14" height="14" transform="rotate(0,110,222)"/><rect x="103" y="243" width="14" height="14" transform="rotate(0,110,250)"/><rect x="103" y="271" width="14" height="14" transform="rotate(0,110,278)"/><rect x="103" y="299" width="14" height="14" transform="rotate(0,110,306)"/><rect x="103" y="327" width="14" height="14" transform="rotate(0,110,334)"/><rect x="103" y="355" width="14" height="14" transform="rotate(0,110,362)"/><rect x="117" y="131" width="14" height="14" transform="rotate(0,124,138)"/><rect x="117" y="187" width="14" height="14" transform="rotate(0,124,194)"/><rect x="117" y="285" width="14" height="14" transform="rotate(0,124,292)"/><rect x="117" y="299" width="14" height="14" transform="rotate(0,124,306)"/><rect x="117" y="341" width="14" height="14" transform="rotate(0,124,348)"/><rect x="117" y="355" width="14" height="14" transform="rotate(0,124,362)"/><rect x="131" y="33" width="14" height="14" transform="rotate(0,138,40)"/><rect x="131" y="47" width="14" height="14" transform="rotate(0,138,54)"/><rect x="131" y="103" width="14" height="14" transform="rotate(0,138,110)"/><rect x="131" y="201" width="14" height="14" transform="rotate(0,138,208)"/><rect x="131" y="229" width="14" height="14" transform="rotate(0,138,236)"/><rect x="131" y="257" width="14" height="14" transform="rotate(0,138,264)"/><rect x="131" y="383" width="14" height="14" transform="rotate(0,138,390)"/><rect x="131" y="397" width="14" height="14" transform="rotate(0,138,404)"/><rect x="131" y="425" width="14" height="14" transform="rotate(0,138,432)"/><rect x="145" y="33" width="14" height="14" transform="rotate(0,152,40)"/><rect x="145" y="47" width="14" height="14" transform="rotate(0,152,54)"/><rect x="145" y="89" width="14" height="14" transform="rotate(0,152,96)"/><rect x="145" y="117" width="14" height="14" transform="rotate(0,152,124)"/><rect x="145" y="145" width="14" height="14" transform="rotate(0,152,152)"/><rect x="145" y="173" width="14" height="14" transform="rotate(0,152,180)"/><rect x="145" y="187" width="14" height="14" transform="rotate(0,152,194)"/><rect x="145" y="201" width="14" height="14" transform="rotate(0,152,208)"/><rect x="145" y="215" width="14" height="14" transform="rotate(0,152,222)"/><rect x="145" y="229" width="14" height="14" transform="rotate(0,152,236)"/><rect x="145" y="243" width="14" height="14" transform="rotate(0,152,250)"/><rect x="145" y="257" width="14" height="14" transform="rotate(0,152,264)"/><rect x="145" y="285" width="14" height="14" transform="rotate(0,152,292)"/><rect x="145" y="299" width="14" height="14" transform="rotate(0,152,306)"/><rect x="145" y="313" width="14" height="14" transform="rotate(0,152,320)"/><rect x="145" y="341" width="14" height="14" transform="rotate(0,152,348)"/><rect x="145" y="355" width="14" height="14" transform="rotate(0,152,362)"/><rect x="145" y="383" width="14" height="14" transform="rotate(0,152,390)"/><rect x="145" y="425" width="14" height="14" transform="rotate(0,152,432)"/><rect x="145" y="453" width="14" height="14" transform="rotate(0,152,460)"/><rect x="145" y="467" width="14" height="14" transform="rotate(0,152,474)"/><rect x="159" y="33" width="14" height="14" transform="rotate(0,166,40)"/><rect x="159" y="61" width="14" height="14" transform="rotate(0,166,68)"/><rect x="159" y="75" width="14" height="14" transform="rotate(0,166,82)"/><rect x="159" y="89" width="14" height="14" transform="rotate(0,166,96)"/><rect x="159" y="103" width="14" height="14" transform="rotate(0,166,110)"/><rect x="159" y="131" width="14" height="14" transform="rotate(0,166,138)"/><rect x="159" y="145" width="14" height="14" transform="rotate(0,166,152)"/><rect x="159" y="159" width="14" height="14" transform="rotate(0,166,166)"/><rect x="159" y="201" width="14" height="14" transform="rotate(0,166,208)"/><rect x="159" y="285" width="14" height="14" transform="rotate(0,166,292)"/><rect x="159" y="341" width="14" height="14" transform="rotate(0,166,348)"/><rect x="159" y="369" width="14" height="14" transform="rotate(0,166,376)"/><rect x="159" y="383" width="14" height="14" transform="rotate(0,166,390)"/><rect x="159" y="425" width="14" height="14" transform="rotate(0,166,432)"/><rect x="159" y="439" width="14" height="14" transform="rotate(0,166,446)"/><rect x="159" y="467" width="14" height="14" transform="rotate(0,166,474)"/><rect x="173" y="19" width="14" height="14" transform="rotate(0,180,26)"/><rect x="173" y="75" width="14" height="14" transform="rotate(0,180,82)"/><rect x="173" y="89" width="14" height="14" transform="rotate(0,180,96)"/><rect x="173" y="117" width="14" height="14" transform="rotate(0,180,124)"/><rect x="173" y="145" width="14" height="14" transform="rotate(0,180,152)"/><rect x="173" y="173" width="14" height="14" transform="rotate(0,180,180)"/><rect x="173" y="229" width="14" height="14" transform="rotate(0,180,236)"/><rect x="173" y="257" width="14" height="14" transform="rotate(0,180,264)"/><rect x="173" y="313" width="14" height="14" transform="rotate(0,180,320)"/><rect x="173" y="355" width="14" height="14" transform="rotate(0,180,362)"/><rect x="173" y="369" width="14" height="14" transform="rotate(0,180,376)"/><rect x="173" y="397" width="14" height="14" transform="rotate(0,180,404)"/><rect x="173" y="411" width="14" height="14" transform="rotate(0,180,418)"/><rect x="173" y="425" width="14" height="14" transform="rotate(0,180,432)"/><rect x="187" y="33" width="14" height="14" transform="rotate(0,194,40)"/><rect x="187" y="47" width="14" height="14" transform="rotate(0,194,54)"/><rect x="187" y="61" width="14" height="14" transform="rotate(0,194,68)"/><rect x="187" y="75" width="14" height="14" transform="rotate(0,194,82)"/><rect x="187" y="89" width="14" height="14" transform="rotate(0,194,96)"/><rect x="187" y="103" width="14" height="14" transform="rotate(0,194,110)"/><rect x="187" y="131" width="14" height="14" transform="rotate(0,194,138)"/><rect x="187" y="145" width="14" height="14" transform="rotate(0,194,152)"/><rect x="187" y="173" width="14" height="14" transform="rotate(0,194,180)"/><rect x="187" y="187" width="14" height="14" transform="rotate(0,194,194)"/><rect x="187" y="215" width="14" height="14" transform="rotate(0,194,222)"/><rect x="187" y="229" width="14" height="14" transform="rotate(0,194,236)"/><rect x="187" y="243" width="14" height="14" transform="rotate(0,194,250)"/><rect x="187" y="257" width="14" height="14" transform="rotate(0,194,264)"/><rect x="187" y="285" width="14" height="14" transform="rotate(0,194,292)"/><rect x="187" y="313" width="14" height="14" transform="rotate(0,194,320)"/><rect x="187" y="355" width="14" height="14" transform="rotate(0,194,362)"/><rect x="187" y="383" width="14" height="14" transform="rotate(0,194,390)"/><rect x="187" y="397" width="14" height="14" transform="rotate(0,194,404)"/><rect x="187" y="453" width="14" height="14" transform="rotate(0,194,460)"/><rect x="201" y="61" width="14" height="14" transform="rotate(0,208,68)"/><rect x="201" y="89" width="14" height="14" transform="rotate(0,208,96)"/><rect x="201" y="117" width="14" height="14" transform="rotate(0,208,124)"/><rect x="201" y="243" width="14" height="14" transform="rotate(0,208,250)"/><rect x="201" y="369" width="14" height="14" transform="rotate(0,208,376)"/><rect x="201" y="397" width="14" height="14" transform="rotate(0,208,404)"/><rect x="201" y="425" width="14" height="14" transform="rotate(0,208,432)"/><rect x="201" y="453" width="14" height="14" transform="rotate(0,208,460)"/><rect x="201" y="467" width="14" height="14" transform="rotate(0,208,474)"/><rect x="215" y="19" width="14" height="14" transform="rotate(0,222,26)"/><rect x="215" y="47" width="14" height="14" transform="rotate(0,222,54)"/><rect x="215" y="75" width="14" height="14" transform="rotate(0,222,82)"/><rect x="215" y="89" width="14" height="14" transform="rotate(0,222,96)"/><rect x="215" y="103" width="14" height="14" transform="rotate(0,222,110)"/><rect x="215" y="131" width="14" height="14" transform="rotate(0,222,138)"/><rect x="215" y="173" width="14" height="14" transform="rotate(0,222,180)"/><rect x="215" y="187" width="14" height="14" transform="rotate(0,222,194)"/><rect x="215" y="215" width="14" height="14" transform="rotate(0,222,222)"/><rect x="215" y="229" width="14" height="14" transform="rotate(0,222,236)"/><rect x="215" y="257" width="14" height="14" transform="rotate(0,222,264)"/><rect x="215" y="285" width="14" height="14" transform="rotate(0,222,292)"/><rect x="215" y="341" width="14" height="14" transform="rotate(0,222,348)"/><rect x="215" y="355" width="14" height="14" transform="rotate(0,222,362)"/><rect x="215" y="439" width="14" height="14" transform="rotate(0,222,446)"/><rect x="215" y="467" width="14" height="14" transform="rotate(0,222,474)"/><rect x="229" y="33" width="14" height="14" transform="rotate(0,236,40)"/><rect x="229" y="47" width="14" height="14" transform="rotate(0,236,54)"/><rect x="229" y="61" width="14" height="14" transform="rotate(0,236,68)"/><rect x="229" y="117" width="14" height="14" transform="rotate(0,236,124)"/><rect x="229" y="145" width="14" height="14" transform="rotate(0,236,152)"/><rect x="229" y="159" width="14" height="14" transform="rotate(0,236,166)"/><rect x="229" y="187" width="14" height="14" transform="rotate(0,236,194)"/><rect x="229" y="201" width="14" height="14" transform="rotate(0,236,208)"/><rect x="229" y="271" width="14" height="14" transform="rotate(0,236,278)"/><rect x="229" y="327" width="14" height="14" transform="rotate(0,236,334)"/><rect x="229" y="341" width="14" height="14" transform="rotate(0,236,348)"/><rect x="229" y="355" width="14" height="14" transform="rotate(0,236,362)"/><rect x="229" y="369" width="14" height="14" transform="rotate(0,236,376)"/><rect x="229" y="383" width="14" height="14" transform="rotate(0,236,390)"/><rect x="229" y="411" width="14" height="14" transform="rotate(0,236,418)"/><rect x="229" y="425" width="14" height="14" transform="rotate(0,236,432)"/><rect x="243" y="19" width="14" height="14" transform="rotate(0,250,26)"/><rect x="243" y="47" width="14" height="14" transform="rotate(0,250,54)"/><rect x="243" y="61" width="14" height="14" transform="rotate(0,250,68)"/><rect x="243" y="75" width="14" height="14" transform="rotate(0,250,82)"/><rect x="243" y="103" width="14" height="14" transform="rotate(0,250,110)"/><rect x="243" y="117" width="14" height="14" transform="rotate(0,250,124)"/><rect x="243" y="131" width="14" height="14" transform="rotate(0,250,138)"/><rect x="243" y="159" width="14" height="14" transform="rotate(0,250,166)"/><rect x="243" y="173" width="14" height="14" transform="rotate(0,250,180)"/><rect x="243" y="215" width="14" height="14" transform="rotate(0,250,222)"/><rect x="243" y="229" width="14" height="14" transform="rotate(0,250,236)"/><rect x="243" y="243" width="14" height="14" transform="rotate(0,250,250)"/><rect x="243" y="285" width="14" height="14" transform="rotate(0,250,292)"/><rect x="243" y="341" width="14" height="14" transform="rotate(0,250,348)"/><rect x="243" y="355" width="14" height="14" transform="rotate(0,250,362)"/><rect x="243" y="383" width="14" height="14" transform="rotate(0,250,390)"/><rect x="243" y="397" width="14" height="14" transform="rotate(0,250,404)"/><rect x="243" y="425" width="14" height="14" transform="rotate(0,250,432)"/><rect x="243" y="453" width="14" height="14" transform="rotate(0,250,460)"/><rect x="257" y="19" width="14" height="14" transform="rotate(0,264,26)"/><rect x="257" y="33" width="14" height="14" transform="rotate(0,264,40)"/><rect x="257" y="131" width="14" height="14" transform="rotate(0,264,138)"/><rect x="257" y="145" width="14" height="14" transform="rotate(0,264,152)"/><rect x="257" y="215" width="14" height="14" transform="rotate(0,264,222)"/><rect x="257" y="229" width="14" height="14" transform="rotate(0,264,236)"/><rect x="257" y="243" width="14" height="14" transform="rotate(0,264,250)"/><rect x="257" y="257" width="14" height="14" transform="rotate(0,264,264)"/><rect x="257" y="285" width="14" height="14" transform="rotate(0,264,292)"/><rect x="257" y="299" width="14" height="14" transform="rotate(0,264,306)"/><rect x="257" y="341" width="14" height="14" transform="rotate(0,264,348)"/><rect x="257" y="355" width="14" height="14" transform="rotate(0,264,362)"/><rect x="257" y="383" width="14" height="14" transform="rotate(0,264,390)"/><rect x="257" y="425" width="14" height="14" transform="rotate(0,264,432)"/><rect x="257" y="467" width="14" height="14" transform="rotate(0,264,474)"/><rect x="271" y="33" width="14" height="14" transform="rotate(0,278,40)"/><rect x="271" y="47" width="14" height="14" transform="rotate(0,278,54)"/><rect x="271" y="89" width="14" height="14" transform="rotate(0,278,96)"/><rect x="271" y="103" width="14" height="14" transform="rotate(0,278,110)"/><rect x="271" y="117" width="14" height="14" transform="rotate(0,278,124)"/><rect x="271" y="173" width="14" height="14" transform="rotate(0,278,180)"/><rect x="271" y="187" width="14" height="14" transform="rotate(0,278,194)"/><rect x="271" y="201" width="14" height="14" transform="rotate(0,278,208)"/><rect x="271" y="243" width="14" height="14" transform="rotate(0,278,250)"/><rect x="271" y="271" width="14" height="14" transform="rotate(0,278,278)"/><rect x="271" y="285" width="14" height="14" transform="rotate(0,278,292)"/><rect x="271" y="299" width="14" height="14" transform="rotate(0,278,306)"/><rect x="271" y="313" width="14" height="14" transform="rotate(0,278,320)"/><rect x="271" y="327" width="14" height="14" transform="rotate(0,278,334)"/><rect x="271" y="341" width="14" height="14" transform="rotate(0,278,348)"/><rect x="271" y="355" width="14" height="14" transform="rotate(0,278,362)"/><rect x="271" y="369" width="14" height="14" transform="rotate(0,278,376)"/><rect x="271" y="383" width="14" height="14" transform="rotate(0,278,390)"/><rect x="271" y="397" width="14" height="14" transform="rotate(0,278,404)"/><rect x="271" y="425" width="14" height="14" transform="rotate(0,278,432)"/><rect x="271" y="439" width="14" height="14" transform="rotate(0,278,446)"/><rect x="271" y="467" width="14" height="14" transform="rotate(0,278,474)"/><rect x="285" y="61" width="14" height="14" transform="rotate(0,292,68)"/><rect x="285" y="89" width="14" height="14" transform="rotate(0,292,96)"/><rect x="285" y="117" width="14" height="14" transform="rotate(0,292,124)"/><rect x="285" y="159" width="14" height="14" transform="rotate(0,292,166)"/><rect x="285" y="201" width="14" height="14" transform="rotate(0,292,208)"/><rect x="285" y="215" width="14" height="14" transform="rotate(0,292,222)"/><rect x="285" y="243" width="14" height="14" transform="rotate(0,292,250)"/><rect x="285" y="327" width="14" height="14" transform="rotate(0,292,334)"/><rect x="285" y="341" width="14" height="14" transform="rotate(0,292,348)"/><rect x="285" y="369" width="14" height="14" transform="rotate(0,292,376)"/><rect x="285" y="411" width="14" height="14" transform="rotate(0,292,418)"/><rect x="285" y="425" width="14" height="14" transform="rotate(0,292,432)"/><rect x="285" y="467" width="14" height="14" transform="rotate(0,292,474)"/><rect x="299" y="47" width="14" height="14" transform="rotate(0,306,54)"/><rect x="299" y="89" width="14" height="14" transform="rotate(0,306,96)"/><rect x="299" y="103" width="14" height="14" transform="rotate(0,306,110)"/><rect x="299" y="117" width="14" height="14" transform="rotate(0,306,124)"/><rect x="299" y="159" width="14" height="14" transform="rotate(0,306,166)"/><rect x="299" y="229" width="14" height="14" transform="rotate(0,306,236)"/><rect x="299" y="243" width="14" height="14" transform="rotate(0,306,250)"/><rect x="299" y="257" width="14" height="14" transform="rotate(0,306,264)"/><rect x="299" y="271" width="14" height="14" transform="rotate(0,306,278)"/><rect x="299" y="299" width="14" height="14" transform="rotate(0,306,306)"/><rect x="299" y="313" width="14" height="14" transform="rotate(0,306,320)"/><rect x="299" y="327" width="14" height="14" transform="rotate(0,306,334)"/><rect x="299" y="341" width="14" height="14" transform="rotate(0,306,348)"/><rect x="299" y="383" width="14" height="14" transform="rotate(0,306,390)"/><rect x="299" y="397" width="14" height="14" transform="rotate(0,306,404)"/><rect x="299" y="411" width="14" height="14" transform="rotate(0,306,418)"/><rect x="299" y="467" width="14" height="14" transform="rotate(0,306,474)"/><rect x="313" y="47" width="14" height="14" transform="rotate(0,320,54)"/><rect x="313" y="61" width="14" height="14" transform="rotate(0,320,68)"/><rect x="313" y="117" width="14" height="14" transform="rotate(0,320,124)"/><rect x="313" y="131" width="14" height="14" transform="rotate(0,320,138)"/><rect x="313" y="215" width="14" height="14" transform="rotate(0,320,222)"/><rect x="313" y="243" width="14" height="14" transform="rotate(0,320,250)"/><rect x="313" y="257" width="14" height="14" transform="rotate(0,320,264)"/><rect x="313" y="299" width="14" height="14" transform="rotate(0,320,306)"/><rect x="313" y="313" width="14" height="14" transform="rotate(0,320,320)"/><rect x="313" y="327" width="14" height="14" transform="rotate(0,320,334)"/><rect x="313" y="341" width="14" height="14" transform="rotate(0,320,348)"/><rect x="313" y="383" width="14" height="14" transform="rotate(0,320,390)"/><rect x="313" y="397" width="14" height="14" transform="rotate(0,320,404)"/><rect x="313" y="439" width="14" height="14" transform="rotate(0,320,446)"/><rect x="313" y="467" width="14" height="14" transform="rotate(0,320,474)"/><rect x="327" y="19" width="14" height="14" transform="rotate(0,334,26)"/><rect x="327" y="33" width="14" height="14" transform="rotate(0,334,40)"/><rect x="327" y="61" width="14" height="14" transform="rotate(0,334,68)"/><rect x="327" y="75" width="14" height="14" transform="rotate(0,334,82)"/><rect x="327" y="89" width="14" height="14" transform="rotate(0,334,96)"/><rect x="327" y="103" width="14" height="14" transform="rotate(0,334,110)"/><rect x="327" y="117" width="14" height="14" transform="rotate(0,334,124)"/><rect x="327" y="131" width="14" height="14" transform="rotate(0,334,138)"/><rect x="327" y="173" width="14" height="14" transform="rotate(0,334,180)"/><rect x="327" y="187" width="14" height="14" transform="rotate(0,334,194)"/><rect x="327" y="257" width="14" height="14" transform="rotate(0,334,264)"/><rect x="327" y="299" width="14" height="14" transform="rotate(0,334,306)"/><rect x="327" y="313" width="14" height="14" transform="rotate(0,334,320)"/><rect x="327" y="341" width="14" height="14" transform="rotate(0,334,348)"/><rect x="327" y="355" width="14" height="14" transform="rotate(0,334,362)"/><rect x="327" y="383" width="14" height="14" transform="rotate(0,334,390)"/><rect x="327" y="397" width="14" height="14" transform="rotate(0,334,404)"/><rect x="327" y="425" width="14" height="14" transform="rotate(0,334,432)"/><rect x="327" y="467" width="14" height="14" transform="rotate(0,334,474)"/><rect x="341" y="47" width="14" height="14" transform="rotate(0,348,54)"/><rect x="341" y="61" width="14" height="14" transform="rotate(0,348,68)"/><rect x="341" y="159" width="14" height="14" transform="rotate(0,348,166)"/><rect x="341" y="187" width="14" height="14" transform="rotate(0,348,194)"/><rect x="341" y="215" width="14" height="14" transform="rotate(0,348,222)"/><rect x="341" y="229" width="14" height="14" transform="rotate(0,348,236)"/><rect x="341" y="243" width="14" height="14" transform="rotate(0,348,250)"/><rect x="341" y="285" width="14" height="14" transform="rotate(0,348,292)"/><rect x="341" y="299" width="14" height="14" transform="rotate(0,348,306)"/><rect x="341" y="341" width="14" height="14" transform="rotate(0,348,348)"/><rect x="341" y="355" width="14" height="14" transform="rotate(0,348,362)"/><rect x="341" y="383" width="14" height="14" transform="rotate(0,348,390)"/><rect x="341" y="411" width="14" height="14" transform="rotate(0,348,418)"/><rect x="341" y="453" width="14" height="14" transform="rotate(0,348,460)"/><rect x="341" y="467" width="14" height="14" transform="rotate(0,348,474)"/><rect x="355" y="19" width="14" height="14" transform="rotate(0,362,26)"/><rect x="355" y="33" width="14" height="14" transform="rotate(0,362,40)"/><rect x="355" y="47" width="14" height="14" transform="rotate(0,362,54)"/><rect x="355" y="61" width="14" height="14" transform="rotate(0,362,68)"/><rect x="355" y="103" width="14" height="14" transform="rotate(0,362,110)"/><rect x="355" y="131" width="14" height="14" transform="rotate(0,362,138)"/><rect x="355" y="145" width="14" height="14" transform="rotate(0,362,152)"/><rect x="355" y="173" width="14" height="14" transform="rotate(0,362,180)"/><rect x="355" y="187" width="14" height="14" transform="rotate(0,362,194)"/><rect x="355" y="201" width="14" height="14" transform="rotate(0,362,208)"/><rect x="355" y="215" width="14" height="14" transform="rotate(0,362,222)"/><rect x="355" y="229" width="14" height="14" transform="rotate(0,362,236)"/><rect x="355" y="243" width="14" height="14" transform="rotate(0,362,250)"/><rect x="355" y="257" width="14" height="14" transform="rotate(0,362,264)"/><rect x="355" y="299" width="14" height="14" transform="rotate(0,362,306)"/><rect x="355" y="355" width="14" height="14" transform="rotate(0,362,362)"/><rect x="355" y="369" width="14" height="14" transform="rotate(0,362,376)"/><rect x="355" y="383" width="14" height="14" transform="rotate(0,362,390)"/><rect x="355" y="397" width="14" height="14" transform="rotate(0,362,404)"/><rect x="355" y="411" width="14" height="14" transform="rotate(0,362,418)"/><rect x="355" y="453" width="14" height="14" transform="rotate(0,362,460)"/><rect x="355" y="467" width="14" height="14" transform="rotate(0,362,474)"/><rect x="369" y="131" width="14" height="14" transform="rotate(0,376,138)"/><rect x="369" y="159" width="14" height="14" transform="rotate(0,376,166)"/><rect x="369" y="201" width="14" height="14" transform="rotate(0,376,208)"/><rect x="369" y="257" width="14" height="14" transform="rotate(0,376,264)"/><rect x="369" y="285" width="14" height="14" transform="rotate(0,376,292)"/><rect x="369" y="299" width="14" height="14" transform="rotate(0,376,306)"/><rect x="369" y="313" width="14" height="14" transform="rotate(0,376,320)"/><rect x="369" y="341" width="14" height="14" transform="rotate(0,376,348)"/><rect x="369" y="355" width="14" height="14" transform="rotate(0,376,362)"/><rect x="369" y="411" width="14" height="14" transform="rotate(0,376,418)"/><rect x="369" y="453" width="14" height="14" transform="rotate(0,376,460)"/><rect x="369" y="467" width="14" height="14" transform="rotate(0,376,474)"/><rect x="383" y="159" width="14" height="14" transform="rotate(0,390,166)"/><rect x="383" y="201" width="14" height="14" transform="rotate(0,390,208)"/><rect x="383" y="229" width="14" height="14" transform="rotate(0,390,236)"/><rect x="383" y="285" width="14" height="14" transform="rotate(0,390,292)"/><rect x="383" y="355" width="14" height="14" transform="rotate(0,390,362)"/><rect x="383" y="383" width="14" height="14" transform="rotate(0,390,390)"/><rect x="383" y="411" width="14" height="14" transform="rotate(0,390,418)"/><rect x="383" y="425" width="14" height="14" transform="rotate(0,390,432)"/><rect x="383" y="439" width="14" height="14" transform="rotate(0,390,446)"/><rect x="383" y="453" width="14" height="14" transform="rotate(0,390,460)"/><rect x="383" y="467" width="14" height="14" transform="rotate(0,390,474)"/><rect x="397" y="145" width="14" height="14" transform="rotate(0,404,152)"/><rect x="397" y="215" width="14" height="14" transform="rotate(0,404,222)"/><rect x="397" y="243" width="14" height="14" transform="rotate(0,404,250)"/><rect x="397" y="285" width="14" height="14" transform="rotate(0,404,292)"/><rect x="397" y="299" width="14" height="14" transform="rotate(0,404,306)"/><rect x="397" y="313" width="14" height="14" transform="rotate(0,404,320)"/><rect x="397" y="341" width="14" height="14" transform="rotate(0,404,348)"/><rect x="397" y="355" width="14" height="14" transform="rotate(0,404,362)"/><rect x="397" y="411" width="14" height="14" transform="rotate(0,404,418)"/><rect x="397" y="425" width="14" height="14" transform="rotate(0,404,432)"/><rect x="397" y="453" width="14" height="14" transform="rotate(0,404,460)"/><rect x="397" y="467" width="14" height="14" transform="rotate(0,404,474)"/><rect x="411" y="145" width="14" height="14" transform="rotate(0,418,152)"/><rect x="411" y="173" width="14" height="14" transform="rotate(0,418,180)"/><rect x="411" y="187" width="14" height="14" transform="rotate(0,418,194)"/><rect x="411" y="229" width="14" height="14" transform="rotate(0,418,236)"/><rect x="411" y="243" width="14" height="14" transform="rotate(0,418,250)"/><rect x="411" y="257" width="14" height="14" transform="rotate(0,418,264)"/><rect x="411" y="313" width="14" height="14" transform="rotate(0,418,320)"/><rect x="411" y="341" width="14" height="14" transform="rotate(0,418,348)"/><rect x="411" y="355" width="14" height="14" transform="rotate(0,418,362)"/><rect x="411" y="369" width="14" height="14" transform="rotate(0,418,376)"/><rect x="411" y="383" width="14" height="14" transform="rotate(0,418,390)"/><rect x="411" y="397" width="14" height="14" transform="rotate(0,418,404)"/><rect x="411" y="411" width="14" height="14" transform="rotate(0,418,418)"/><rect x="411" y="453" width="14" height="14" transform="rotate(0,418,460)"/><rect x="411" y="467" width="14" height="14" transform="rotate(0,418,474)"/><rect x="425" y="159" width="14" height="14" transform="rotate(0,432,166)"/><rect x="425" y="229" width="14" height="14" transform="rotate(0,432,236)"/><rect x="425" y="271" width="14" height="14" transform="rotate(0,432,278)"/><rect x="425" y="341" width="14" height="14" transform="rotate(0,432,348)"/><rect x="425" y="355" width="14" height="14" transform="rotate(0,432,362)"/><rect x="425" y="369" width="14" height="14" transform="rotate(0,432,376)"/><rect x="425" y="397" width="14" height="14" transform="rotate(0,432,404)"/><rect x="425" y="411" width="14" height="14" transform="rotate(0,432,418)"/><rect x="425" y="467" width="14" height="14" transform="rotate(0,432,474)"/><rect x="439" y="131" width="14" height="14" transform="rotate(0,446,138)"/><rect x="439" y="159" width="14" height="14" transform="rotate(0,446,166)"/><rect x="439" y="201" width="14" height="14" transform="rotate(0,446,208)"/><rect x="439" y="229" width="14" height="14" transform="rotate(0,446,236)"/><rect x="439" y="243" width="14" height="14" transform="rotate(0,446,250)"/><rect x="439" y="285" width="14" height="14" transform="rotate(0,446,292)"/><rect x="439" y="313" width="14" height="14" transform="rotate(0,446,320)"/><rect x="439" y="369" width="14" height="14" transform="rotate(0,446,376)"/><rect x="439" y="397" width="14" height="14" transform="rotate(0,446,404)"/><rect x="439" y="411" width="14" height="14" transform="rotate(0,446,418)"/><rect x="439" y="425" width="14" height="14" transform="rotate(0,446,432)"/><rect x="439" y="453" width="14" height="14" transform="rotate(0,446,460)"/><rect x="439" y="467" width="14" height="14" transform="rotate(0,446,474)"/><rect x="453" y="131" width="14" height="14" transform="rotate(0,460,138)"/><rect x="453" y="187" width="14" height="14" transform="rotate(0,460,194)"/><rect x="453" y="201" width="14" height="14" transform="rotate(0,460,208)"/><rect x="453" y="215" width="14" height="14" transform="rotate(0,460,222)"/><rect x="453" y="243" width="14" height="14" transform="rotate(0,460,250)"/><rect x="453" y="271" width="14" height="14" transform="rotate(0,460,278)"/><rect x="453" y="327" width="14" height="14" transform="rotate(0,460,334)"/><rect x="453" y="369" width="14" height="14" transform="rotate(0,460,376)"/><rect x="453" y="397" width="14" height="14" transform="rotate(0,460,404)"/><rect x="453" y="411" width="14" height="14" transform="rotate(0,460,418)"/><rect x="453" y="425" width="14" height="14" transform="rotate(0,460,432)"/><rect x="467" y="159" width="14" height="14" transform="rotate(0,474,166)"/><rect x="467" y="173" width="14" height="14" transform="rotate(0,474,180)"/><rect x="467" y="201" width="14" height="14" transform="rotate(0,474,208)"/><rect x="467" y="229" width="14" height="14" transform="rotate(0,474,236)"/><rect x="467" y="243" width="14" height="14" transform="rotate(0,474,250)"/><rect x="467" y="257" width="14" height="14" transform="rotate(0,474,264)"/><rect x="467" y="271" width="14" height="14" transform="rotate(0,474,278)"/><rect x="467" y="285" width="14" height="14" transform="rotate(0,474,292)"/><rect x="467" y="299" width="14" height="14" transform="rotate(0,474,306)"/><rect x="467" y="327" width="14" height="14" transform="rotate(0,474,334)"/><rect x="467" y="355" width="14" height="14" transform="rotate(0,474,362)"/><rect x="467" y="369" width="14" height="14" transform="rotate(0,474,376)"/><rect x="467" y="383" width="14" height="14" transform="rotate(0,474,390)"/><rect x="467" y="397" width="14" height="14" transform="rotate(0,474,404)"/><rect x="467" y="411" width="14" height="14" transform="rotate(0,474,418)"/><rect x="467" y="425" width="14" height="14" transform="rotate(0,474,432)"/><rect x="467" y="439" width="14" height="14" transform="rotate(0,474,446)"/><rect x="467" y="467" width="14" height="14" transform="rotate(0,474,474)"/><path clip-rule="evenodd" d="M 68 19a 49 49 0 1 0 0.1 0zm 0 14a 35 35 0 1 1 -0.1 0Z" transform="rotate(0,68,68)"/><circle cx="68" cy="68" r="21" transform="rotate(0,68,68)"/><path clip-rule="evenodd" d="M 432 19a 49 49 0 1 0 0.1 0zm 0 14a 35 35 0 1 1 -0.1 0Z" transform="rotate(90,432,68)"/><circle cx="432" cy="68" r="21" transform="rotate(90,432,68)"/><path clip-rule="evenodd" d="M 68 383a 49 49 0 1 0 0.1 0zm 0 14a 35 35 0 1 1 -0.1 0Z" transform="rotate(-90,68,432)"/><circle cx="68" cy="432" r="21" transform="rotate(-90,68,432)"/></clipPath></defs><rect x="0" y="0" height="500" width="500" clip-path="url('#clip-path-background-color')" fill="#fff"/><rect x="0" y="0" height="500" width="500" clip-path="url('#clip-path-dot-color')" fill="#000000"/></svg>